<?xml version="1.0" encoding="UTF-8"?>
<svg width="81px" height="83px" viewBox="0 0 81 83" version="1.1" xmlns="http://www.w3.org/2000/svg" xmlns:xlink="http://www.w3.org/1999/xlink">
    <!-- Generator: Sketch 43.2 (39069) - http://www.bohemiancoding.com/sketch -->
    <title>grumpy troll</title>
    <desc>Created with Sketch.</desc>
    <defs></defs>
    <g id="Page-1" stroke="none" stroke-width="1" fill="none" fill-rule="evenodd">
        <g id="Artboard-2" transform="translate(-3503.000000, -1355.000000)" fill="#3498DB">
            <g id="grumpy-troll" transform="translate(3503.000000, 1355.000000)">
                <polygon id="Fill-1" points="56.0003625 56.4402029 50.7062375 53.7892618 45.4198 56.4402029 40.094925 53.7892618 34.887925 56.4402029 29.5809875 53.7892618 24.268925 56.4402029 18.9568625 53.7892618 13.57305 56.4402029 13.57305 68.3745559 30.459925 82.8267912 50.2859875 82.8267912 66.652675 68.3745559 66.652675 56.4402029 61.2893625 53.7892618"></polygon>
                <g id="Group-4" transform="translate(0.000000, 0.386126)">
                    <path d="M77.7951938,9.90339118 L66.1409438,12.6208618 L64.3805063,22.12945 L55.8935063,24.4323912 C51.4834438,21.0905676 46.0253188,19.1125971 40.1213188,19.1125971 C34.2070688,19.1125971 28.7489438,21.0905676 24.3414438,24.4375088 L15.8390688,22.12945 L14.0837563,12.6208618 L2.42438125,9.90339118 L0.00025625,0.172185294 L0.00025625,12.3675382 L10.3963188,15.3485676 L12.1516313,24.8571559 L19.7596938,28.8668324 C15.9159438,33.5776265 13.5994438,39.6369206 13.5994438,46.2514794 L13.5994438,51.2079206 L18.9883813,48.5569794 L24.3004438,51.2079206 L29.6125063,48.5569794 L34.9245688,51.2079206 L40.1290063,48.5569794 L45.4538813,51.2079206 L50.7454438,48.5569794 L56.0318813,51.2079206 L61.3234438,48.5569794 L66.6560063,51.2079206 L66.6560063,46.2514794 C66.6560063,39.6318029 64.3395062,33.5673912 60.4906313,28.8591559 L68.0807563,24.8520382 L69.8411938,15.3460088 L80.2321313,12.3624206 L80.2321313,0.172185294 L77.7951938,9.90339118 Z M26.2274438,43.5468029 C22.8090688,43.5468029 20.0441313,40.7832735 20.0441313,37.3698029 C20.0441313,33.9588912 22.8141938,31.1953618 26.2274438,31.1953618 C29.6406938,31.1953618 32.4107563,33.9640088 32.4107563,37.3698029 C32.4107563,40.7832735 29.6406938,43.5468029 26.2274438,43.5468029 L26.2274438,43.5468029 Z M54.0228813,43.5468029 C50.6070688,43.5468029 47.8370063,40.7832735 47.8370063,37.3698029 C47.8370063,33.9588912 50.6019438,31.1953618 54.0228813,31.1953618 C57.4386938,31.1953618 60.2061938,33.9640088 60.2061938,37.3698029 C60.2061938,40.7832735 57.4335688,43.5468029 54.0228813,43.5468029 L54.0228813,43.5468029 Z" id="Fill-2"></path>
                </g>
            </g>
        </g>
    </g>
</svg>